<svg xmlns="http://www.w3.org/2000/svg" viewBox="0 0 1333.333 1024">
  <defs>
    <clipPath id="a" clipPathUnits="userSpaceOnUse">
      <path d="M0 768h1000V0H0z"/>
    </clipPath>
  </defs>
  <g clip-path="url(#a)" transform="matrix(1.33333 0 0 -1.33333 0 1024)">
    <path d="M793.752 407.433c7.876 14.578 12.333 31.142 12.333 48.737 0 58.56-49.313 106.086-110.141 106.086-14.213 0-27.798-2.6-40.227-7.345 1.237-10.598 3.587-21.18 6.92-31.593 8.297 3.245 17.354 5.035 26.914 5.035 39.142 0 70.882-30.265 70.882-67.54 0-14.315-4.662-27.58-12.601-38.512 14.178-6.91 29.857-11.894 45.92-14.868" fill="#fff"/>
    <path d="M689.55 528.354c-9.56 0-18.616-1.79-26.913-5.035 11.14-34.594 33.645-66.935 65.088-89.21 6.202-4.421 12.967-8.331 20.107-11.808 7.939 10.933 12.6 24.198 12.6 38.512 0 37.276-31.738 67.54-70.881 67.54" fill="#ee3123"/>
    <path d="M852.118 491.563c26.02 19.938 91.708 63.025 81.533 80.509-8.22 14.092-44.145-2.932-84.692-24.984-31.857-17.372-24.974 3.606-4.737 34.234 17.847 26.959 44.673 63.341 29.733 73.19-17.42 11.452-70.767-51.966-83.249-64.48-12.458-12.515-23.872-19.256-17.61 15.601 8.391 46.333 10.035 70.554-.386 73.475-14.577 4.085-23.684-14.107-45.498-65.014-15.645-36.536-29.294-43.011-30.973-10.235-2.182 58.899-17.15 45.394-22.908 36.34-15.8-24.888-21.177-55.039-17.614-85.288 12.428 4.745 26.014 7.345 40.227 7.345 60.827 0 110.141-47.526 110.141-106.086 0-17.595-4.457-34.159-12.333-48.737 34.731-6.348 71.314-3.297 98.891 10.419 4.591 2.277 15.735 9.108 8.79 18.54-13.856 18.856-38.838 8.965-65.545 16.709-23.439 6.792-2.546 24.097 16.23 38.462" fill="#ee3123"/>
    <path d="M747.832 422.3c-12.841-17.575-34.139-29.104-58.281-29.104-39.157 0-70.905 30.282-70.905 67.617 0 28.236 18.197 52.41 43.991 62.506-3.333 10.412-5.683 20.994-6.92 31.592-40.956-15.473-69.941-53.814-69.941-98.74 0-58.62 49.322-106.162 110.168-106.162 42.581 0 79.492 23.345 97.808 57.424-16.064 2.974-31.742 7.957-45.92 14.868" fill="#6d6f71"/>
    <path d="M155.297 448.902c0 4.198-3.637 7.71-7.958 7.71H75.266c-4.27 0-7.924-3.512-7.924-7.71 0-4.159 3.554-7.585 7.924-7.585h27.657v-82.813c0-4.52 3.767-8.199 8.393-8.199 4.645 0 8.393 3.68 8.393 8.2v82.812h27.63c4.396 0 7.958 3.426 7.958 7.585M179.059 417.71c13.6 0 19.999-10.184 21.67-20.517h-43.762c2.275 12.191 11.05 20.517 22.092 20.517m.298 14.141c-22.023 0-39.26-18.054-39.26-41.108v-.325c0-23.43 17.525-41.094 40.735-41.094 12.339 0 21.777 3.691 30.623 11.903 1.594 1.381 2.554 3.266 2.554 5.342 0 3.93-3.372 7.122-7.522 7.122-1.72 0-3.297-.595-4.856-1.848-6.16-5.539-12.671-8.068-20.5-8.068-12.635 0-21.863 7.906-24.164 20.39h52.622c4.328 0 7.822 3.415 7.822 7.598 0 19.94-13.07 40.088-38.054 40.088M235.859 461.638c-4.501 0-8.107-3.57-8.107-7.982v-95.333c0-4.483 3.606-8.017 8.24-8.017 4.618 0 8.12 3.486 8.12 8.017v95.333c0 4.413-3.723 7.982-8.253 7.982M300.85 395.01l23.44 22.375c1.583 1.508 2.99 3.28 2.99 6.024 0 4.236-3.367 7.6-7.669 7.6-2.412 0-4.416-.947-6.29-2.94l-37.216-36.805v62.392c0 4.413-3.697 7.982-8.23 7.982-4.447 0-8.119-3.57-8.119-7.982v-95.333c0-4.483 3.63-8.017 8.281-8.017 4.602 0 8.068 3.486 8.068 8.017v13.3l13.173 12.646 24.838-30.43c1.924-2.47 3.978-3.533 6.843-3.533 4.521 0 7.948 3.305 7.948 7.622 0 1.937-.574 3.408-2.02 5.217zM346.823 390.86c0 15.05 11.018 26.433 25.571 26.433 14.567 0 26.03-11.743 26.03-26.696v-.306c0-14.938-11.096-26.224-25.724-26.224-14.477 0-25.877 11.646-25.877 26.53zm25.877 40.991c-23.848 0-42.497-18.12-42.497-41.254v-.306c0-22.97 18.53-40.967 42.191-40.967 23.915 0 42.652 18.106 42.652 41.273v.263c0 23.004-18.618 40.991-42.346 40.991M515.02 431.852c-11.08 0-19.874-4.173-26.714-12.744-5.474 8.247-14.146 12.744-24.855 12.744-10.655 0-17.5-4.37-22.284-9.448V423c0 4.483-3.662 8.009-8.272 8.009-4.49 0-8.135-3.578-8.135-8.01v-64.676c0-4.483 3.645-8.017 8.276-8.017 4.621 0 8.131 3.486 8.131 8.017v37.565c0 12.228 7.908 21.105 18.844 21.105 10.98 0 17.286-7.207 17.286-19.776v-38.894c0-4.483 3.534-8.017 8.099-8.017 4.604 0 8.24 3.534 8.24 8.017v38.034c0 12.328 7.483 20.636 18.57 20.636 11.23 0 17.42-7.122 17.42-20.08v-38.59c0-4.483 3.64-8.017 8.245-8.017 4.528 0 8.123 3.534 8.123 8.017v41.204c0 19.953-11.848 32.325-30.973 32.325M147.458 325.06c-4.107 0-7.573-3.434-7.573-7.509v-91.499c0-4.013 3.466-7.48 7.573-7.48 4.26 0 7.729 3.373 7.729 7.48v91.5c0 4.14-3.468 7.508-7.73 7.508M214.164 299.371c-10.234 0-18.53-3.733-24.726-11.058v2.826c0 4.123-3.307 7.32-7.558 7.32-4.098 0-7.437-3.28-7.437-7.32v-65.23c0-4.14 3.339-7.338 7.592-7.338 4.175 0 7.403 3.163 7.403 7.337v38.066c0 12.86 8.827 21.858 21.445 21.858 12.508 0 19.665-7.635 19.665-20.978v-38.946c0-4.14 3.347-7.337 7.584-7.337 4.15 0 7.403 3.197 7.403 7.337V267.6c0 19.29-12.311 31.772-31.371 31.772M323.173 258.736v-.315c0-16.865-13.616-27.334-26.27-27.334-14.502 0-25.493 11.765-25.493 27.334v.315c0 16.036 10.524 27.238 25.493 27.238 12.936 0 26.27-10.177 26.27-27.238m6.953 70.702c-4.211 0-7.423-3.179-7.423-7.318v-35.48c-7.42 8.445-16.801 12.731-27.878 12.731-18.751 0-38.681-14.29-38.681-40.78v-.283c0-26.36 19.93-40.599 38.68-40.599 11.138 0 20.305 4.366 27.879 13.328v-5.129c0-4.14 3.333-7.337 7.567-7.337 4.175 0 7.42 3.197 7.42 7.337v96.212c0 4.071-3.297 7.318-7.564 7.318M364.48 258.736c0 15.6 11.425 27.367 26.571 27.367 15.126 0 26.95-12.124 26.95-27.682v-.272c0-15.489-11.466-27.206-26.66-27.206-15.053 0-26.862 12.091-26.862 27.478zm26.861 40.635c-23.632 0-42.122-17.969-42.122-40.95v-.272c0-22.744 18.37-40.59 41.832-40.59 23.644 0 42.243 17.96 42.243 40.862v.315c0 22.793-18.444 40.635-41.953 40.635M484.36 299.371c-10.205 0-18.515-3.733-24.737-11.058v2.826c0 4.123-3.304 7.32-7.567 7.32-4.08 0-7.41-3.28-7.41-7.32v-65.23c0-4.14 3.33-7.338 7.584-7.338 4.242 0 7.393 3.163 7.393 7.337v38.066c0 12.86 8.824 21.858 21.497 21.858 12.472 0 19.64-7.635 19.64-20.978v-38.946c0-4.14 3.326-7.337 7.556-7.337 4.175 0 7.422 3.197 7.422 7.337V267.6c0 19.29-12.338 31.772-31.377 31.772M541.402 264.337c2.077 13.194 11.392 22.19 23.184 22.19 14.561 0 21.217-11.101 22.766-22.19zm23.472 35.034c-21.767 0-38.809-17.937-38.809-40.78v-.282c0-23.232 17.297-40.75 40.317-40.75 12.253 0 21.598 3.6 30.367 11.789 1.474 1.278 2.324 3 2.324 4.857 0 3.57-3.034 6.462-6.839 6.462-1.506 0-2.948-.523-4.37-1.673-6.367-5.718-13.108-8.332-21.208-8.332-13.209 0-23.146 8.769-25.254 22.05h54.001c3.903 0 7.108 3.103 7.108 6.917 0 19.743-12.91 39.742-37.637 39.742M643.944 265.462l-.29.075c-9.466 2.807-18.376 5.428-18.376 11.252v.275c0 5.469 5.307 9.203 13.213 9.203 6.05 0 12.721-1.944 19.333-5.582a7.889 7.889 0 013.414-.79c3.787 0 6.81 2.886 6.81 6.438 0 2.489-1.362 4.725-3.684 6.1-8.082 4.244-17.334 6.615-25.554 6.615-16.55 0-28.087-9.528-28.087-23.17v-.291c0-15.413 15.534-19.695 26.828-22.798 10.261-2.805 18.04-5.42 18.04-11.604v-.292c0-6.141-5.717-10.231-14.264-10.231-7.869 0-15.812 2.58-23.55 7.694-.913.734-2.327 1.174-3.834 1.174-3.73 0-6.799-2.894-6.799-6.483 0-2.548 1.46-4.5 2.847-5.455 8.76-6.095 20.234-9.718 30.724-9.718 17.516 0 29.275 9.703 29.275 24.19v.252c0 15.544-15.68 20.119-26.046 23.146M690.427 298.459c-4.096 0-7.418-3.28-7.418-7.32v-65.231c0-4.139 3.322-7.337 7.548-7.337 4.23 0 7.439 3.163 7.439 7.337v65.231c0 4.123-3.35 7.32-7.57 7.32M766.483 254.56v-5.972c0-10.632-10.388-18.678-24.173-18.678-8.525 0-17.694 4.192-17.694 13.32v.254c0 8.706 7.774 13.873 20.833 13.873 7.074 0 13.976-.912 21.034-2.797m5.931 35.426c-5.99 5.814-14.799 8.788-26.202 8.788-9.373 0-17.339-1.59-25.97-5.215-1.957-.769-4.16-3.05-4.16-6.202 0-3.495 3.077-6.477 6.8-6.477.847 0 1.813.224 2.735.554 6.347 2.769 12.683 4.108 19.402 4.108 9.712 0 21.247-3.28 21.247-18.805v-.42c-5.679 1.478-12.412 2.678-21.985 2.678-21.464 0-34.818-9.916-34.818-25.913v-.34c0-16.426 15.405-25.033 30.62-25.033 12.598 0 20.921 4.955 26.183 10.13v-2.341c0-3.98 3.172-6.926 7.324-6.926 4.15 0 7.237 3.128 7.237 7.216v41.077c0 9.943-2.817 17.697-8.413 23.122M72.668 96.747c-4.553 0-7.381 2.337-7.381 6.096 0 .94.144 2.067.397 3.088l4.263 15.97h-3.903l1.254 4.653h3.987l2.259 8.57h5.175l-2.314-8.57h8.923l-1.223-4.654h-8.933l-4.316-15.997c-.105-.837-.164-1.51-.164-1.936 0-1.636 1.139-2.46 3.388-2.46 1.194 0 2.45.271 3.961.86l.893.348-1.396-4.983-.219-.089c-1.531-.62-2.965-.896-4.651-.896M109.48 97.265h-5.222l4.464 16.69a13 13 0 01.402 3.046c0 3.408-2.194 5.443-5.87 5.443-4.274 0-8.386-3.7-9.778-8.798l-4.38-16.381h-5.194l.163.604 10.822 40.394h5.183l-4.005-15.05c2.096 2.045 4.92 3.947 8.894 3.947 5.793 0 9.537-3.625 9.537-9.237 0-1.465-.396-3.188-.74-4.52zM125.353 114.186h17.196c.074.436.128.957.128 1.648 0 3.296-1.73 6.823-6.586 6.823-4.77 0-8.927-3.304-10.738-8.471m7.034-17.585c-7.79 0-13.021 5.042-13.021 12.546 0 8.517 6.966 18.012 16.965 18.012 7.907 0 11.446-5.688 11.446-11.324 0-1.905-.368-3.827-1.09-5.711l-.118-.31h-22.068c-.012-.157-.012-.325-.012-.49 0-4.91 3.176-8.081 8.094-8.081 3.874 0 6.342 1.54 8.433 3.209l.375.298 2.796-3.5-.358-.301c-2.419-2.023-5.902-4.347-11.442-4.347M196.426 97.019h-4.443l-1.56 21.345-13.009-21.345h-4.409l-2.346 29.535h5.315l1.38-21.49 13.04 21.599h4.237l1.501-21.615 13 21.506h5.542zM230.71 122.493c-6.1 0-11.654-6-11.654-12.589 0-5.279 3.222-8.56 8.407-8.56 6.104 0 11.663 5.974 11.663 12.54 0 5.31-3.224 8.61-8.416 8.61m-3.5-25.893c-7.87 0-13.365 5.436-13.365 13.223 0 9.236 8.01 17.335 17.14 17.335 7.88 0 13.383-5.398 13.383-13.134 0-9.28-8.019-17.424-17.159-17.424M252.15 97.265h-5.209l7.793 29.289h5.222l-1.47-5.684c3.423 4.12 7.304 6.202 11.561 6.202.294 0 .59-.013.893-.03l.578-.04-1.423-5.461h-.67c-6.592 0-12.16-4.997-14.18-12.726zM274.565 97.265h-5.202l11.012 40.998h5.18l-.158-.603zM302.151 122.493c-6.264 0-11.362-5.84-11.362-13.023 0-4.89 3.036-8.178 7.556-8.178 6.126 0 12.14 6.39 12.14 12.898 0 4.81-3.505 8.303-8.334 8.303m-5.027-25.892c-6.784 0-11.706 5.25-11.706 12.476 0 9.8 7.491 18.082 16.361 18.082 6.081 0 9.084-3.41 10.51-6.102l4.575 17.206h5.227L311.16 97.264h-5.252l.968 3.604c-2.965-2.867-6.17-4.267-9.75-4.267M351.187 131.796h-5.834l1.542 5.64h5.812zm-9.628-34.531H336.4l7.859 29.289h5.2zM376.069 97.265h-5.202l4.457 16.69c.232.884.39 2.136.39 3.046 0 3.455-2.145 5.443-5.885 5.443-4.264 0-8.378-3.7-9.78-8.798l-4.353-16.381h-5.216l7.804 29.289h5.236l-.902-3.353c2.183 2.122 4.97 3.959 8.95 3.959 5.772 0 9.5-3.625 9.5-9.237 0-1.412-.385-3.054-.726-4.507zM402.3 88.338c-2.355 0-4.412.653-6.48 2.049l-.414.28 2.93 3.967.388-.317c.875-.71 2.688-1.287 4.045-1.287 2.378 0 4.375 1.413 6.863 4.879l-5.232 28.645h5.386l3.83-22.791 14.664 22.79h5.95l-19.891-30.01c-3.983-5.832-7.468-8.205-12.038-8.205M449.698 122.493c-6.089 0-11.637-6-11.637-12.589 0-5.279 3.22-8.56 8.401-8.56 6.09 0 11.637 5.974 11.637 12.54 0 5.31-3.22 8.61-8.4 8.61m-3.51-25.893c-7.882 0-13.387 5.436-13.387 13.223 0 9.236 8.02 17.335 17.16 17.335 7.903 0 13.421-5.398 13.421-13.134 0-9.28-8.036-17.424-17.195-17.424M477.781 96.67c-5.755 0-9.465 3.633-9.465 9.253 0 1.157.236 2.627.72 4.49l4.263 16.14h5.19L474 109.909c-.209-.98-.359-2.237-.359-3.038 0-3.437 2.176-5.492 5.82-5.492 4.276 0 8.474 3.812 9.763 8.874l4.432 16.302h5.2l-7.843-29.29h-5.19l.91 3.398c-2.11-2.07-4.96-3.992-8.952-3.992M504.741 97.265h-5.216l7.808 29.289h5.206l-1.458-5.678c3.643 4.395 7.777 6.467 12.46 6.166l.58-.04-1.444-5.461h-.66c-6.586 0-12.153-4.997-14.19-12.73zM563.643 97.265h-5.214l4.424 16.69c.269.845.444 2.06.444 3.046 0 3.408-2.21 5.443-5.908 5.443-4.275 0-8.39-3.7-9.793-8.798l-4.358-16.381h-5.202l.165.604 10.823 40.394h5.189l-4.046-15.054c2.177 2.118 4.95 3.95 8.914 3.95 5.802 0 9.558-3.624 9.558-9.236 0-1.447-.394-3.172-.732-4.515zM585.128 111.63c-4.683 0-7.946-2.535-7.946-6.171 0-2.761 2.094-4.474 5.47-4.474 4.796 0 9.374 3.435 10.656 7.993l.403 1.534a34.241 34.241 0 01-8.583 1.118m-3.844-14.96c-5.53 0-9.39 3.423-9.39 8.317 0 6.423 5.262 10.737 13.096 10.737 2.938 0 6.115-.472 9.695-1.436l.073.24c.185.79.323 1.797.323 2.473 0 4.345-3.877 5.254-7.132 5.254-2.62 0-4.972-.446-7.863-1.487l-.52-.191-.925 4.503.375.147c3.146 1.218 6.099 1.76 9.569 1.76 7.277 0 11.62-3.462 11.62-9.27 0-1.112-.197-2.531-.548-3.996l-4.38-16.456h-5.172l.857 3.247c-2.731-2.55-5.98-3.842-9.678-3.842M628.815 97.265h-5.194l4.444 16.69c.243.834.411 2.084.411 3.046 0 3.408-2.199 5.443-5.874 5.443-4.23 0-8.357-3.702-9.815-8.802l-4.345-16.377h-5.193l7.797 29.289h5.206l-.89-3.355c2.113 2.053 4.952 3.96 8.908 3.96 5.786 0 9.525-3.624 9.525-9.236 0-1.175-.229-2.614-.715-4.52zM655.572 122.493c-6.262 0-11.363-5.84-11.363-13.023 0-4.97 2.95-8.178 7.503-8.178 6.133 0 12.153 6.39 12.153 12.898 0 4.81-3.488 8.303-8.293 8.303m-5.062-25.892c-6.784 0-11.716 5.25-11.716 12.476 0 9.8 7.5 18.082 16.372 18.082 4.726 0 8.418-2.155 10.517-6.112l4.605 17.216h5.158l-10.953-40.999h-5.162l.947 3.627c-2.974-2.883-6.185-4.29-9.768-4.29" fill="#231f20"/>
  </g>
</svg>
